<svg xmlns="http://www.w3.org/2000/svg" viewBox="0 0 225.659 88.067"><path d="M143.225 49.204v-9.477c0-1.428-.36-2.292-1.079-2.595-.72-.301-1.714-.453-2.98-.453v15.573c1.324 0 2.187-.081 2.591-.247.978-.439 1.468-1.372 1.468-2.801zM84.659 54.628v-14.03c0-1.393-.517-2.312-1.549-2.757-.575-.223-1.521-.334-2.841-.334V57.72c1.434 0 2.353-.083 2.754-.251 1.09-.446 1.636-1.392 1.636-2.841zM15.596 59.459l.64.124v-.124h-.64z" fill="none"/><path d="M16.237 59.459v.124a325.74 325.74 0 0 0 12.145 2.136c.175.027.354.051.529.078V29.306H16.237v23.029h-3.562V29.306H0v26.65a301.504 301.504 0 0 0 15.596 3.503h.641zM16.237 70.926v16.367h12.674V72.285c-.609-.054-1.227-.102-1.833-.158a340.827 340.827 0 0 1-10.841-1.201zM0 87.293h12.674V70.444A316.295 316.295 0 0 1 0 68.44v18.853zM53.679 64.686v-.34l12.509-35.041H54.673L48.216 49.85l-5.638-20.544H30.401l10.347 34.112c3.262.39 6.556.743 9.886 1.03 1.01.087 2.029.159 3.045.238zM41.004 73.157v14.136h12.674V73.598c-1.189-.019-2.38-.031-3.563-.062a308.41 308.41 0 0 1-9.111-.379zM91.163 65.244c.917-.448 2.025-1.194 3.341-2.264 1.665-1.352 2.498-3.796 2.498-7.331v-16.07c0-4.693-1.823-7.731-5.468-9.112-1.988-.773-5.716-1.16-11.183-1.16H67.925v36.186c1.946.063 3.895.106 5.845.128 5.817.057 11.636-.062 17.393-.377zM80.269 37.507c1.32 0 2.266.112 2.841.334 1.033.445 1.549 1.364 1.549 2.757v14.031c0 1.448-.546 2.395-1.636 2.84-.401.169-1.32.251-2.754.251V37.507zM67.925 73.524v13.768h12.343V72.893c-2.113.154-4.23.289-6.348.397-1.998.099-3.997.177-5.995.234zM99.321 87.293h24.935V79.92h-12.26V68.501a212.416 212.416 0 0 1-12.674 2.296v16.496zM111.995 59.459h10.935v-7.124h-10.935V36.678h12.095v-7.373H99.321v35.329a204.9 204.9 0 0 0 12.674-1.553v-3.622zM154.538 50.013c.419-.216.709-.609.803-1.071.148-.725.227-1.55.227-2.49v-6.925c0-3.076-1.174-5.549-3.521-7.418-2.348-1.869-5.62-2.804-9.816-2.804h-15.74V60.23c4.486-1.092 8.822-2.341 12.923-3.77 5.464-1.895 10.537-4.075 15.124-6.447zm-15.373-13.335c1.266 0 2.26.152 2.98.453.719.303 1.079 1.168 1.079 2.595v9.477c0 1.429-.489 2.362-1.468 2.801-.404.166-1.267.247-2.591.247V36.678zM126.491 87.293h12.674V60.402a146.666 146.666 0 0 1-12.674 4.434v22.457zM142.145 59.832c.719.304 1.079 1.174 1.079 2.609v14.248c0 2.982.137 5.289.414 6.917.276 1.63.773 2.858 1.491 3.686h12.674c-.884-.663-1.52-2.626-1.905-5.889-.112-1.051-.221-2.599-.331-4.647V64.231c0-2.046-.385-3.65-1.152-4.812-1.032-1.513-2.813-2.68-5.33-3.506a124.157 124.157 0 0 1-7.881 3.648c.349.071.671.157.941.271z" fill="#33332d"/><g><path d="M176.331 51.755v17.399c0 2.364-.259 4.211-.776 5.541s-1.588 1.995-3.213 1.995c-1.134 0-2.032-.443-2.696-1.33-.665-.887-1.145-1.921-1.441-3.103l-9.604 4.285c.788 3.399 2.462 6.132 5.024 8.2 2.56 2.069 5.663 3.103 9.309 3.103 5.22 0 9.05-1.576 11.487-4.728 2.438-3.151 3.657-7.462 3.657-12.929V44.767c-2.073 4.217-6.147 6.693-11.747 6.988zM221.05 59.028a18.378 18.378 0 0 0-3.857-3.204 50.078 50.078 0 0 0-4.015-2.255c-2.264-1.16-3.977-2.229-5.134-3.205-1.159-.975-1.738-2.334-1.738-4.075 0-2.056.565-3.534 1.698-4.431 1.132-.896 2.41-1.345 3.831-1.345a9.06 9.06 0 0 1 3.95.908 10.075 10.075 0 0 1 3.318 2.568l6.557-9.28c-1.633-1.726-3.661-3.086-6.083-4.079-2.423-.993-5.161-1.491-8.215-1.491-2.054 0-4.095.343-6.122 1.027a16.58 16.58 0 0 0-5.529 3.16c-1.658 1.422-3.002 3.252-4.029 5.49-1.026 2.239-1.54 4.911-1.54 8.018 0 2.318.288 4.319.869 6.003.579 1.686 1.382 3.16 2.41 4.424a15.941 15.941 0 0 0 3.554 3.239 35.576 35.576 0 0 0 4.306 2.449c2.421 1.212 4.266 2.358 5.529 3.436 1.264 1.08 1.896 2.541 1.896 4.384 0 1.791-.527 3.187-1.58 4.187-1.054 1.001-2.344 1.501-3.871 1.501-1.633 0-3.238-.381-4.818-1.145a14.481 14.481 0 0 1-4.187-3.041l-6.477 9.479c1.685 1.686 3.91 3.16 6.675 4.424 2.765 1.264 5.832 1.896 9.203 1.896a19.21 19.21 0 0 0 6.571-1.146 16.248 16.248 0 0 0 5.599-3.403c1.617-1.503 2.902-3.402 3.856-5.696.954-2.294 1.432-4.946 1.432-7.952 0-2.426-.385-4.524-1.154-6.291-.77-1.772-1.739-3.288-2.905-4.554z" fill="#f16522"/><path d="M180.807 33.215c-.917-4.679-4.092-7.307-9.038-7.307-4.221 0-11.301 1.082-11.301 8.331 0 6.231 5.07 11.3 11.301 11.3.39 0 .768-.012 1.133-.036 5.506-.356 8.187-3.403 8.187-9.285 0-1.08-.101-2.078-.282-3.003z" fill="#f6921e"/></g><g><path d="M191.877 4.053c2.393-.577 4.906-1.134 7.365-.675.73 2.348.47 4.871.173 7.273-.858 5.834-3.316 11.564-7.574 15.726.196 1.356.438 2.706.611 4.065.197 2.007-.705 4.056-2.29 5.293-2.037 1.532-4.064 3.08-6.119 4.588-1.073.761-2.758.042-2.973-1.249-.32-2.182-.575-4.375-.893-6.559-1.776.065-3.593-.456-4.99-1.573-1.63-1.262-2.579-3.255-2.762-5.287-1.525-.116-3.109-.035-4.657-.083-.735-.039-1.494.095-2.21-.123-1.085-.365-1.647-1.77-1.07-2.772 1.22-2.178 2.42-4.369 3.655-6.539 1.058-1.824 3.12-2.996 5.229-2.968 1.202.037 2.404.094 3.605.159.286.072.4-.252.566-.416 3.611-4.461 8.846-7.379 14.334-8.86zm-3.792 6.736c-1.97.36-3.493 2.286-3.372 4.289.017 2.245 2.107 4.195 4.347 4.057 1.65-.018 3.202-1.136 3.792-2.669.589-1.459.266-3.237-.811-4.386-.969-1.088-2.532-1.591-3.956-1.291z" fill="#33332d"/><path d="M168.657 29.147c.463-.55 1.459-.322 1.657.364 1.029 2.687 3.401 4.807 6.187 5.53.678.123 1.038 1.025.588 1.561a429.729 429.729 0 0 1-3.051 3.417c-.488.563-1.538.262-1.659-.471-.069-.583-.074-1.173-.119-1.759-1.37.527-2.724 1.094-4.096 1.615-.656.246-1.414-.426-1.251-1.105.363-1.426.784-2.838 1.144-4.265-.585.028-1.172.087-1.758.083-.742-.035-1.151-1.051-.652-1.597.994-1.132 2.004-2.251 3.01-3.373z" fill="#33332d"/><circle cx="188.867" cy="14.936" r="2.058" fill="#33332d"/></g></svg>