<svg xmlns="http://www.w3.org/2000/svg" viewBox="0 0 225.659 88.067"><path d="M141.832 48.603v-9.064c0-1.365-.344-2.192-1.032-2.482-.688-.288-1.639-.433-2.85-.433v14.895c1.266 0 2.092-.078 2.479-.236.935-.421 1.403-1.313 1.403-2.68zM85.817 53.792v-13.42c0-1.332-.494-2.211-1.482-2.637-.55-.213-1.455-.32-2.717-.32v19.332c1.371 0 2.25-.079 2.634-.24 1.043-.425 1.565-1.33 1.565-2.715zM19.763 58.412l.613.119v-.119h-.613z" fill="none"/><g fill="#fff8e3"><path d="M20.376 58.412v.119c3.766.736 7.644 1.422 11.616 2.043.167.026.339.049.506.075V29.572H20.376v22.026h-3.407V29.572H4.847v25.489a288.955 288.955 0 0 0 14.917 3.351h.612zM20.376 69.379v15.654h12.122V70.679c-.583-.052-1.174-.097-1.753-.152a321.891 321.891 0 0 1-10.369-1.148zM4.847 85.033h12.122V68.919a301.414 301.414 0 0 1-12.122-1.918v18.032zM56.187 63.411v-.325L68.15 29.572H57.137l-6.175 19.649-5.392-19.649H33.923l9.896 32.626c3.119.373 6.27.71 9.455.985.967.084 1.942.152 2.913.228zM44.064 71.513v13.52h12.122V71.934c-1.137-.018-2.276-.03-3.408-.059a295.54 295.54 0 0 1-8.714-.362zM92.038 63.944c.877-.429 1.937-1.142 3.195-2.166 1.592-1.293 2.389-3.631 2.389-7.012v-15.37c0-4.489-1.743-7.394-5.229-8.715-1.901-.739-5.467-1.11-10.696-1.11H69.813V64.18a257.02 257.02 0 0 0 22.225-.236zm-10.42-26.528c1.263 0 2.168.107 2.717.32.988.426 1.482 1.305 1.482 2.637v13.42c0 1.385-.522 2.29-1.565 2.716-.384.161-1.263.24-2.634.24V37.416zM69.813 71.864v13.169h11.805V71.261a272.73 272.73 0 0 1-6.071.379c-1.911.095-3.823.169-5.734.224zM99.84 85.033h23.848v-7.052h-11.726V67.06a202.813 202.813 0 0 1-12.122 2.196v15.777zM111.963 58.412h10.458v-6.814h-10.458V36.623h11.568v-7.052H99.84v33.79a196.14 196.14 0 0 0 12.122-1.486v-3.463zM152.652 49.377c.4-.207.678-.583.768-1.024.141-.693.217-1.483.217-2.382v-6.623c0-2.942-1.123-5.307-3.368-7.095-2.246-1.787-5.375-2.682-9.388-2.682h-15.054v29.577c4.29-1.044 8.438-2.239 12.36-3.606 5.226-1.812 10.078-3.896 14.465-6.165zm-14.703-12.754c1.211 0 2.162.145 2.85.433.688.29 1.032 1.117 1.032 2.482v9.064c0 1.367-.468 2.259-1.404 2.679-.387.159-1.212.236-2.479.236V36.623zM125.827 85.033h12.122v-25.72a139.954 139.954 0 0 1-12.122 4.241v21.479zM140.799 58.768c.688.291 1.032 1.123 1.032 2.496v13.627c0 2.852.131 5.058.396 6.616.264 1.559.739 2.733 1.426 3.526h12.122c-.846-.634-1.453-2.512-1.822-5.633-.107-1.005-.212-2.486-.317-4.444v-11.98c0-1.957-.368-3.491-1.102-4.602-.987-1.447-2.69-2.563-5.098-3.353a118.676 118.676 0 0 1-7.537 3.489c.334.067.642.149.9.258z"/></g><g fill="#f16522"><path d="M173.496 51.043v16.641c0 2.261-.248 4.028-.742 5.3-.494 1.272-1.519 1.908-3.073 1.908-1.084 0-1.944-.424-2.579-1.272-.636-.848-1.096-1.837-1.378-2.967l-9.185 4.098c.754 3.251 2.355 5.865 4.805 7.843 2.448 1.979 5.417 2.968 8.903 2.968 4.992 0 8.656-1.507 10.987-4.522 2.332-3.014 3.498-7.137 3.498-12.365V44.36c-1.983 4.033-5.88 6.401-11.236 6.683zM216.386 57.881a17.656 17.656 0 0 0-3.705-3.078 47.875 47.875 0 0 0-3.857-2.166c-2.175-1.114-3.82-2.141-4.931-3.079-1.113-.937-1.67-2.242-1.67-3.914 0-1.975.543-3.394 1.631-4.256 1.088-.861 2.314-1.292 3.68-1.292 1.315 0 2.58.292 3.794.872a9.67 9.67 0 0 1 3.186 2.466l6.298-8.914c-1.569-1.657-3.516-2.964-5.843-3.918-2.327-.954-4.957-1.432-7.891-1.432-1.972 0-3.934.33-5.88.986a15.929 15.929 0 0 0-5.311 3.035c-1.593 1.366-2.883 3.124-3.87 5.273-.986 2.151-1.479 4.717-1.479 7.701 0 2.226.277 4.148.834 5.766.556 1.62 1.328 3.035 2.314 4.249a15.334 15.334 0 0 0 3.414 3.111 34.17 34.17 0 0 0 4.135 2.352c2.326 1.164 4.097 2.264 5.311 3.301 1.214 1.037 1.821 2.441 1.821 4.211 0 1.72-.506 3.061-1.518 4.021-1.012.961-2.251 1.441-3.718 1.441-1.568 0-3.11-.366-4.628-1.1a13.903 13.903 0 0 1-4.022-2.921l-6.222 9.105c1.618 1.619 3.756 3.035 6.411 4.249 2.656 1.214 5.602 1.821 8.84 1.821 2.174 0 4.278-.367 6.311-1.101a15.608 15.608 0 0 0 5.378-3.269c1.553-1.444 2.787-3.267 3.704-5.471.917-2.204 1.376-4.75 1.376-7.638 0-2.331-.37-4.345-1.108-6.042-.735-1.696-1.665-3.152-2.785-4.369z"/></g><g><path d="M165.051 31.384c.405-.555 1.371-.404 1.605.237 1.161 2.496 3.565 4.36 6.271 4.864.655.072 1.059.909.665 1.45a405.281 405.281 0 0 1-2.684 3.463c-.428.57-1.45.352-1.614-.339-.105-.552-.149-1.114-.23-1.671-1.272.594-2.526 1.225-3.801 1.813-.609.279-1.378-.313-1.267-.971.252-1.385.559-2.76.807-4.146-.557.066-1.112.161-1.672.196-.71.016-1.168-.926-.728-1.48.874-1.144 1.764-2.278 2.648-3.416z" fill="#fff8e3"/></g><g><path d="M192.518 4.762c-2.376-.274-4.738.425-6.982 1.135-5.138 1.777-9.939 4.911-13.087 9.406-.148.167-.235.484-.513.435-1.15.019-2.3.044-3.45.088-2.014.113-3.904 1.369-4.792 3.179-1.034 2.153-2.032 4.323-3.052 6.483-.483.994.146 2.298 1.206 2.574.697.16 1.413-.018 2.117-.03 1.481-.057 2.986-.24 4.449-.231.31 1.927 1.348 3.765 2.987 4.861 1.408.972 3.176 1.349 4.866 1.168.45 2.062.838 4.137 1.289 6.198.291 1.217 1.946 1.791 2.919.994 1.86-1.575 3.691-3.187 5.533-4.784 1.43-1.286 2.154-3.301 1.833-5.202-.255-1.285-.576-2.557-.853-3.837 3.786-4.254 5.75-9.885 6.18-15.508.123-2.313.203-4.738-.65-6.929zm-8.621 16.332a4.766 4.766 0 1 1-.663-9.509 4.766 4.766 0 0 1 .663 9.509z" fill="#fff8e3"/></g></svg>