<?xml version="1.0" encoding="iso-8859-1"?>
<!-- Generator: Adobe Illustrator 17.1.0, SVG Export Plug-In . SVG Version: 6.00 Build 0)  -->
<!DOCTYPE svg PUBLIC "-//W3C//DTD SVG 1.1//EN" "http://www.w3.org/Graphics/SVG/1.1/DTD/svg11.dtd">
<svg version="1.1" id="Layer_1" xmlns="http://www.w3.org/2000/svg" xmlns:xlink="http://www.w3.org/1999/xlink" x="0px" y="0px"
	 viewBox="0 0 225.659 88.067" style="enable-background:new 0 0 225.659 88.067;" xml:space="preserve">
<g>
	<g>
		<path style="fill:none;" d="M143.225,49.204v-9.477c0-1.428-0.36-2.292-1.079-2.595c-0.72-0.301-1.714-0.453-2.98-0.453v15.573
			c1.324,0,2.187-0.081,2.591-0.247C142.735,51.566,143.225,50.633,143.225,49.204z"/>
		<path style="fill:none;" d="M84.659,54.628V40.598c0-1.393-0.517-2.312-1.549-2.757c-0.575-0.223-1.521-0.334-2.841-0.334v20.213
			c1.434,0,2.353-0.083,2.754-0.251C84.113,57.023,84.659,56.077,84.659,54.628z"/>
		<path style="fill:none;" d="M15.596,59.459c0.212,0.042,0.427,0.083,0.64,0.124v-0.124H15.596z"/>
		<path style="fill:#33332D;" d="M16.237,59.459v0.124c3.937,0.769,7.992,1.487,12.145,2.136c0.175,0.027,0.354,0.051,0.529,0.078
			V29.306H16.237v23.029h-3.562V29.306H0v26.65c4.915,1.245,10.136,2.425,15.596,3.503H16.237z"/>
		<path style="fill:#33332D;" d="M16.237,70.926v16.367h12.674V72.285c-0.609-0.054-1.227-0.102-1.833-0.158
			C23.394,71.779,19.776,71.375,16.237,70.926z"/>
		<path style="fill:#33332D;" d="M0,87.293h12.674V70.444C8.309,69.841,4.07,69.172,0,68.44V87.293z"/>
		<path style="fill:#33332D;" d="M53.679,64.686v-0.34l12.509-35.041H54.673L48.216,49.85l-5.638-20.544H30.401l10.347,34.112
			c3.262,0.39,6.556,0.743,9.886,1.03C51.644,64.535,52.663,64.607,53.679,64.686z"/>
		<path style="fill:#33332D;" d="M41.004,73.157v14.136h12.674V73.598c-1.189-0.019-2.38-0.031-3.563-0.062
			C47.053,73.459,44.019,73.322,41.004,73.157z"/>
		<path style="fill:#33332D;" d="M91.163,65.244c0.917-0.448,2.025-1.194,3.341-2.264c1.665-1.352,2.498-3.796,2.498-7.331v-16.07
			c0-4.693-1.823-7.731-5.468-9.112c-1.988-0.773-5.716-1.16-11.183-1.16H67.925v36.186c1.946,0.063,3.895,0.106,5.845,0.128
			C79.587,65.678,85.406,65.559,91.163,65.244z M80.269,37.507c1.32,0,2.266,0.112,2.841,0.334c1.033,0.445,1.549,1.364,1.549,2.757
			v14.031c0,1.448-0.546,2.395-1.636,2.84c-0.401,0.169-1.32,0.251-2.754,0.251V37.507z"/>
		<path style="fill:#33332D;" d="M67.925,73.524v13.768h12.343V72.893c-2.113,0.154-4.23,0.289-6.348,0.397
			C71.922,73.389,69.923,73.467,67.925,73.524z"/>
		<path style="fill:#33332D;" d="M99.321,87.293h24.935V79.92h-12.26V68.501c-4.148,0.883-8.379,1.651-12.674,2.296V87.293z"/>
		<path style="fill:#33332D;" d="M111.995,59.459h10.935v-7.124h-10.935V36.678h12.095v-7.373H99.321v35.329
			c4.291-0.393,8.524-0.91,12.674-1.553V59.459z"/>
		<path style="fill:#33332D;" d="M154.538,50.013c0.419-0.216,0.709-0.609,0.803-1.071c0.148-0.725,0.227-1.55,0.227-2.49v-6.925
			c0-3.076-1.174-5.549-3.521-7.418c-2.348-1.869-5.62-2.804-9.816-2.804h-15.74V60.23c4.486-1.092,8.822-2.341,12.923-3.77
			C144.878,54.565,149.951,52.385,154.538,50.013z M139.165,36.678c1.266,0,2.26,0.152,2.98,0.453
			c0.719,0.303,1.079,1.168,1.079,2.595v9.477c0,1.429-0.489,2.362-1.468,2.801c-0.404,0.166-1.267,0.247-2.591,0.247V36.678z"/>
		<path style="fill:#33332D;" d="M126.491,87.293h12.674V60.402c-4.028,1.626-8.268,3.11-12.674,4.434V87.293z"/>
		<path style="fill:#33332D;" d="M142.145,59.832c0.719,0.304,1.079,1.174,1.079,2.609v14.248c0,2.982,0.137,5.289,0.414,6.917
			c0.276,1.63,0.773,2.858,1.491,3.686h12.674c-0.884-0.663-1.52-2.626-1.905-5.889c-0.112-1.051-0.221-2.599-0.331-4.647V64.231
			c0-2.046-0.385-3.65-1.152-4.812c-1.032-1.513-2.813-2.68-5.33-3.506c-2.513,1.273-5.143,2.494-7.881,3.648
			C141.553,59.632,141.875,59.718,142.145,59.832z"/>
	</g>
	<g>
		<path style="fill:#F16522;" d="M176.331,51.755v17.399c0,2.364-0.259,4.211-0.776,5.541s-1.588,1.995-3.213,1.995
			c-1.134,0-2.032-0.443-2.696-1.33c-0.665-0.887-1.145-1.921-1.441-3.103l-9.604,4.285c0.788,3.399,2.462,6.132,5.024,8.2
			c2.56,2.069,5.663,3.103,9.309,3.103c5.22,0,9.05-1.576,11.487-4.728c2.438-3.151,3.657-7.462,3.657-12.929V44.767
			C186.005,48.984,181.931,51.46,176.331,51.755z"/>
		<path style="fill:#F16522;" d="M221.05,59.028c-1.166-1.267-2.452-2.334-3.857-3.204c-1.405-0.87-2.744-1.622-4.015-2.255
			c-2.264-1.16-3.977-2.229-5.134-3.205c-1.159-0.975-1.738-2.334-1.738-4.075c0-2.056,0.565-3.534,1.698-4.431
			c1.132-0.896,2.41-1.345,3.831-1.345c1.369,0,2.686,0.304,3.95,0.908c1.264,0.606,2.37,1.462,3.318,2.568l6.557-9.28
			c-1.633-1.726-3.661-3.086-6.083-4.079c-2.423-0.993-5.161-1.491-8.215-1.491c-2.054,0-4.095,0.343-6.122,1.027
			c-2.028,0.685-3.87,1.738-5.529,3.16c-1.658,1.422-3.002,3.252-4.029,5.49c-1.026,2.239-1.54,4.911-1.54,8.018
			c0,2.318,0.288,4.319,0.869,6.003c0.579,1.686,1.382,3.16,2.41,4.424c1.026,1.264,2.211,2.344,3.554,3.239
			c1.343,0.896,2.777,1.712,4.306,2.449c2.421,1.212,4.266,2.358,5.529,3.436c1.264,1.08,1.896,2.541,1.896,4.384
			c0,1.791-0.527,3.187-1.58,4.187c-1.054,1.001-2.344,1.501-3.871,1.501c-1.633,0-3.238-0.381-4.818-1.145
			c-1.58-0.763-2.976-1.778-4.187-3.041l-6.477,9.479c1.685,1.686,3.91,3.16,6.675,4.424c2.765,1.264,5.832,1.896,9.203,1.896
			c2.264,0,4.454-0.382,6.571-1.146c2.116-0.765,3.982-1.9,5.599-3.403c1.617-1.503,2.902-3.402,3.856-5.696
			c0.954-2.294,1.432-4.946,1.432-7.952c0-2.426-0.385-4.524-1.154-6.291C223.185,61.81,222.216,60.294,221.05,59.028z"/>
		<path style="fill:#F6921E;" d="M180.807,33.215c-0.917-4.679-4.092-7.307-9.038-7.307c-4.221,0-11.301,1.082-11.301,8.331
			c0,6.231,5.07,11.3,11.301,11.3c0.39,0,0.768-0.012,1.133-0.036c5.506-0.356,8.187-3.403,8.187-9.285
			C181.089,35.138,180.988,34.14,180.807,33.215z"/>
	</g>
	<g>
		<g>
			<g>
				<g>
					<path style="fill:#33332D;" d="M191.877,4.053c2.393-0.577,4.906-1.134,7.365-0.675c0.73,2.348,0.47,4.871,0.173,7.273
						c-0.858,5.834-3.316,11.564-7.574,15.726c0.196,1.356,0.438,2.706,0.611,4.065c0.197,2.007-0.705,4.056-2.29,5.293
						c-2.037,1.532-4.064,3.08-6.119,4.588c-1.073,0.761-2.758,0.042-2.973-1.249c-0.32-2.182-0.575-4.375-0.893-6.559
						c-1.776,0.065-3.593-0.456-4.99-1.573c-1.63-1.262-2.579-3.255-2.762-5.287c-1.525-0.116-3.109-0.035-4.657-0.083
						c-0.735-0.039-1.494,0.095-2.21-0.123c-1.085-0.365-1.647-1.77-1.07-2.772c1.22-2.178,2.42-4.369,3.655-6.539
						c1.058-1.824,3.12-2.996,5.229-2.968c1.202,0.037,2.404,0.094,3.605,0.159c0.286,0.072,0.4-0.252,0.566-0.416
						C181.154,8.452,186.389,5.534,191.877,4.053z M188.085,10.789c-1.97,0.36-3.493,2.286-3.372,4.289
						c0.017,2.245,2.107,4.195,4.347,4.057c1.65-0.018,3.202-1.136,3.792-2.669c0.589-1.459,0.266-3.237-0.811-4.386
						C191.072,10.992,189.509,10.489,188.085,10.789z"/>
				</g>
				<path style="fill:#33332D;" d="M168.657,29.147c0.463-0.55,1.459-0.322,1.657,0.364c1.029,2.687,3.401,4.807,6.187,5.53
					c0.678,0.123,1.038,1.025,0.588,1.561c-1.011,1.144-2.028,2.284-3.051,3.417c-0.488,0.563-1.538,0.262-1.659-0.471
					c-0.069-0.583-0.074-1.173-0.119-1.759c-1.37,0.527-2.724,1.094-4.096,1.615c-0.656,0.246-1.414-0.426-1.251-1.105
					c0.363-1.426,0.784-2.838,1.144-4.265c-0.585,0.028-1.172,0.087-1.758,0.083c-0.742-0.035-1.151-1.051-0.652-1.597
					C166.641,31.388,167.651,30.269,168.657,29.147z"/>
			</g>
			<circle style="fill:#33332D;" cx="188.867" cy="14.936" r="2.058"/>
		</g>
	</g>
</g>
</svg>
