<?xml version="1.0" encoding="iso-8859-1"?>
<!-- Generator: Adobe Illustrator 17.1.0, SVG Export Plug-In . SVG Version: 6.00 Build 0)  -->
<!DOCTYPE svg PUBLIC "-//W3C//DTD SVG 1.1//EN" "http://www.w3.org/Graphics/SVG/1.1/DTD/svg11.dtd">
<svg version="1.1" xmlns="http://www.w3.org/2000/svg" xmlns:xlink="http://www.w3.org/1999/xlink" x="0px" y="0px"
	 viewBox="0 0 225.659 88.067" style="enable-background:new 0 0 225.659 88.067;" xml:space="preserve">
<g id="Layer_1" style="display:none;">
	<g style="display:inline;">
		<g>
			<path style="fill:none;" d="M143.225,49.204v-9.477c0-1.428-0.36-2.292-1.079-2.595c-0.72-0.301-1.714-0.453-2.98-0.453v15.573
				c1.324,0,2.187-0.081,2.591-0.247C142.735,51.566,143.225,50.633,143.225,49.204z"/>
			<path style="fill:none;" d="M84.659,54.628V40.598c0-1.393-0.517-2.312-1.549-2.757c-0.575-0.223-1.521-0.334-2.841-0.334v20.213
				c1.434,0,2.353-0.083,2.754-0.251C84.113,57.023,84.659,56.077,84.659,54.628z"/>
			<path style="fill:none;" d="M15.596,59.459c0.212,0.042,0.427,0.083,0.64,0.124v-0.124H15.596z"/>
			<path style="fill:#33332D;" d="M16.237,59.459v0.124c3.937,0.769,7.992,1.487,12.145,2.136c0.175,0.027,0.354,0.051,0.529,0.078
				V29.306H16.237v23.029h-3.562V29.306H0v26.65c4.915,1.245,10.136,2.425,15.596,3.503H16.237z"/>
			<path style="fill:#33332D;" d="M16.237,70.926v16.367h12.674V72.285c-0.609-0.054-1.227-0.102-1.833-0.158
				C23.394,71.779,19.776,71.375,16.237,70.926z"/>
			<path style="fill:#33332D;" d="M0,87.293h12.674V70.444C8.309,69.841,4.07,69.172,0,68.44V87.293z"/>
			<path style="fill:#33332D;" d="M53.679,64.686v-0.34l12.509-35.041H54.673L48.216,49.85l-5.638-20.544H30.401l10.347,34.112
				c3.262,0.39,6.556,0.743,9.886,1.03C51.644,64.535,52.663,64.607,53.679,64.686z"/>
			<path style="fill:#33332D;" d="M41.004,73.157v14.136h12.674V73.598c-1.189-0.019-2.38-0.031-3.563-0.062
				C47.053,73.459,44.019,73.322,41.004,73.157z"/>
			<path style="fill:#33332D;" d="M91.163,65.244c0.917-0.448,2.025-1.194,3.341-2.264c1.665-1.352,2.498-3.796,2.498-7.331v-16.07
				c0-4.693-1.823-7.731-5.468-9.112c-1.988-0.773-5.716-1.16-11.183-1.16H67.925v36.186c1.946,0.063,3.895,0.106,5.845,0.128
				C79.587,65.678,85.406,65.559,91.163,65.244z M80.269,37.507c1.32,0,2.266,0.112,2.841,0.334
				c1.033,0.445,1.549,1.364,1.549,2.757v14.031c0,1.448-0.546,2.395-1.636,2.84c-0.401,0.169-1.32,0.251-2.754,0.251V37.507z"/>
			<path style="fill:#33332D;" d="M67.925,73.524v13.768h12.343V72.893c-2.113,0.154-4.23,0.289-6.348,0.397
				C71.922,73.389,69.923,73.467,67.925,73.524z"/>
			<path style="fill:#33332D;" d="M99.321,87.293h24.935V79.92h-12.26V68.501c-4.148,0.883-8.379,1.651-12.674,2.296V87.293z"/>
			<path style="fill:#33332D;" d="M111.995,59.459h10.935v-7.124h-10.935V36.678h12.095v-7.373H99.321v35.329
				c4.291-0.393,8.524-0.91,12.674-1.553V59.459z"/>
			<path style="fill:#33332D;" d="M154.538,50.013c0.419-0.216,0.709-0.609,0.803-1.071c0.148-0.725,0.227-1.55,0.227-2.49v-6.925
				c0-3.076-1.174-5.549-3.521-7.418c-2.348-1.869-5.62-2.804-9.816-2.804h-15.74V60.23c4.486-1.092,8.822-2.341,12.923-3.77
				C144.878,54.565,149.951,52.385,154.538,50.013z M139.165,36.678c1.266,0,2.26,0.152,2.98,0.453
				c0.719,0.303,1.079,1.168,1.079,2.595v9.477c0,1.429-0.489,2.362-1.468,2.801c-0.404,0.166-1.267,0.247-2.591,0.247V36.678z"/>
			<path style="fill:#33332D;" d="M126.491,87.293h12.674V60.402c-4.028,1.626-8.268,3.11-12.674,4.434V87.293z"/>
			<path style="fill:#33332D;" d="M142.145,59.832c0.719,0.304,1.079,1.174,1.079,2.609v14.248c0,2.982,0.137,5.289,0.414,6.917
				c0.276,1.63,0.773,2.858,1.491,3.686h12.674c-0.884-0.663-1.52-2.626-1.905-5.889c-0.112-1.051-0.221-2.599-0.331-4.647V64.231
				c0-2.046-0.385-3.65-1.152-4.812c-1.032-1.513-2.813-2.68-5.33-3.506c-2.513,1.273-5.143,2.494-7.881,3.648
				C141.553,59.632,141.875,59.718,142.145,59.832z"/>
		</g>
		<g>
			<path style="fill:#F16522;" d="M176.331,51.755v17.399c0,2.364-0.259,4.211-0.776,5.541s-1.588,1.995-3.213,1.995
				c-1.134,0-2.032-0.443-2.696-1.33c-0.665-0.887-1.145-1.921-1.441-3.103l-9.604,4.285c0.788,3.399,2.462,6.132,5.024,8.2
				c2.56,2.069,5.663,3.103,9.309,3.103c5.22,0,9.05-1.576,11.487-4.728c2.438-3.151,3.657-7.462,3.657-12.929V44.767
				C186.005,48.984,181.931,51.46,176.331,51.755z"/>
			<path style="fill:#F16522;" d="M221.05,59.028c-1.166-1.267-2.452-2.334-3.857-3.204c-1.405-0.87-2.744-1.622-4.015-2.255
				c-2.264-1.16-3.977-2.229-5.134-3.205c-1.159-0.975-1.738-2.334-1.738-4.075c0-2.056,0.565-3.534,1.698-4.431
				c1.132-0.896,2.41-1.345,3.831-1.345c1.369,0,2.686,0.304,3.95,0.908c1.264,0.606,2.37,1.462,3.318,2.568l6.557-9.28
				c-1.633-1.726-3.661-3.086-6.083-4.079c-2.423-0.993-5.161-1.491-8.215-1.491c-2.054,0-4.095,0.343-6.122,1.027
				c-2.028,0.685-3.87,1.738-5.529,3.16c-1.658,1.422-3.002,3.252-4.029,5.49c-1.026,2.239-1.54,4.911-1.54,8.018
				c0,2.318,0.288,4.319,0.869,6.003c0.579,1.686,1.382,3.16,2.41,4.424c1.026,1.264,2.211,2.344,3.554,3.239
				c1.343,0.896,2.777,1.712,4.306,2.449c2.421,1.212,4.266,2.358,5.529,3.436c1.264,1.08,1.896,2.541,1.896,4.384
				c0,1.791-0.527,3.187-1.58,4.187c-1.054,1.001-2.344,1.501-3.871,1.501c-1.633,0-3.238-0.381-4.818-1.145
				c-1.58-0.763-2.976-1.778-4.187-3.041l-6.477,9.479c1.685,1.686,3.91,3.16,6.675,4.424c2.765,1.264,5.832,1.896,9.203,1.896
				c2.264,0,4.454-0.382,6.571-1.146c2.116-0.765,3.982-1.9,5.599-3.403c1.617-1.503,2.902-3.402,3.856-5.696
				c0.954-2.294,1.432-4.946,1.432-7.952c0-2.426-0.385-4.524-1.154-6.291C223.185,61.81,222.216,60.294,221.05,59.028z"/>
			<path style="fill:#F6921E;" d="M180.807,33.215c-0.917-4.679-4.092-7.307-9.038-7.307c-4.221,0-11.301,1.082-11.301,8.331
				c0,6.231,5.07,11.3,11.301,11.3c0.39,0,0.768-0.012,1.133-0.036c5.506-0.356,8.187-3.403,8.187-9.285
				C181.089,35.138,180.988,34.14,180.807,33.215z"/>
		</g>
		<g>
			<g>
				<g>
					<g>
						<path style="fill:#33332D;" d="M191.877,4.053c2.393-0.577,4.906-1.134,7.365-0.675c0.73,2.348,0.47,4.871,0.173,7.273
							c-0.858,5.834-3.316,11.564-7.574,15.726c0.196,1.356,0.438,2.706,0.611,4.065c0.197,2.007-0.705,4.056-2.29,5.293
							c-2.037,1.532-4.064,3.08-6.119,4.588c-1.073,0.761-2.758,0.042-2.973-1.249c-0.32-2.182-0.575-4.375-0.893-6.559
							c-1.776,0.065-3.593-0.456-4.99-1.573c-1.63-1.262-2.579-3.255-2.762-5.287c-1.525-0.116-3.109-0.035-4.657-0.083
							c-0.735-0.039-1.494,0.095-2.21-0.123c-1.085-0.365-1.647-1.77-1.07-2.772c1.22-2.178,2.42-4.369,3.655-6.539
							c1.058-1.824,3.12-2.996,5.229-2.968c1.202,0.037,2.404,0.094,3.605,0.159c0.286,0.072,0.4-0.252,0.566-0.416
							C181.154,8.452,186.389,5.534,191.877,4.053z M188.085,10.789c-1.97,0.36-3.493,2.286-3.372,4.289
							c0.017,2.245,2.107,4.195,4.347,4.057c1.65-0.018,3.202-1.136,3.792-2.669c0.589-1.459,0.266-3.237-0.811-4.386
							C191.072,10.992,189.509,10.489,188.085,10.789z"/>
					</g>
					<path style="fill:#33332D;" d="M168.657,29.147c0.463-0.55,1.459-0.322,1.657,0.364c1.029,2.687,3.401,4.807,6.187,5.53
						c0.678,0.123,1.038,1.025,0.588,1.561c-1.011,1.144-2.028,2.284-3.051,3.417c-0.488,0.563-1.538,0.262-1.659-0.471
						c-0.069-0.583-0.074-1.173-0.119-1.759c-1.37,0.527-2.724,1.094-4.096,1.615c-0.656,0.246-1.414-0.426-1.251-1.105
						c0.363-1.426,0.784-2.838,1.144-4.265c-0.585,0.028-1.172,0.087-1.758,0.083c-0.742-0.035-1.151-1.051-0.652-1.597
						C166.641,31.388,167.651,30.269,168.657,29.147z"/>
				</g>
				<circle style="fill:#33332D;" cx="188.867" cy="14.936" r="2.058"/>
			</g>
		</g>
	</g>
</g>
<g id="Layer_2">
	<g>
		<g>
			<path style="fill:none;" d="M141.832,48.603v-9.064c0-1.365-0.344-2.192-1.032-2.482c-0.688-0.288-1.639-0.433-2.85-0.433v14.895
				c1.266,0,2.092-0.078,2.479-0.236C141.364,50.862,141.832,49.97,141.832,48.603z"/>
			<path style="fill:none;" d="M85.817,53.792v-13.42c0-1.332-0.494-2.211-1.482-2.637c-0.55-0.213-1.455-0.32-2.717-0.32v19.332
				c1.371,0,2.25-0.079,2.634-0.24C85.295,56.082,85.817,55.177,85.817,53.792z"/>
			<path style="fill:none;" d="M19.763,58.412c0.203,0.04,0.409,0.079,0.613,0.119v-0.119H19.763z"/>
			<g>
				<path style="fill:#FFF8E3;" d="M20.376,58.412v0.119c3.766,0.736,7.644,1.422,11.616,2.043c0.167,0.026,0.339,0.049,0.506,0.075
					V29.572H20.376v22.026h-3.407V29.572H4.847v25.489c4.701,1.191,9.694,2.319,14.917,3.351H20.376z"/>
				<path style="fill:#FFF8E3;" d="M20.376,69.379v15.654h12.122V70.679c-0.583-0.052-1.174-0.097-1.753-0.152
					C27.221,70.195,23.761,69.809,20.376,69.379z"/>
				<path style="fill:#FFF8E3;" d="M4.847,85.033h12.122V68.919c-4.175-0.577-8.229-1.217-12.122-1.918V85.033z"/>
				<path style="fill:#FFF8E3;" d="M56.187,63.411v-0.325L68.15,29.572H57.137l-6.175,19.649L45.57,29.572H33.923l9.896,32.626
					c3.119,0.373,6.27,0.71,9.455,0.985C54.241,63.267,55.216,63.335,56.187,63.411z"/>
				<path style="fill:#FFF8E3;" d="M44.064,71.513v13.52h12.122V71.934c-1.137-0.018-2.276-0.03-3.408-0.059
					C49.849,71.802,46.948,71.67,44.064,71.513z"/>
				<path style="fill:#FFF8E3;" d="M92.038,63.944c0.877-0.429,1.937-1.142,3.195-2.166c1.592-1.293,2.389-3.631,2.389-7.012v-15.37
					c0-4.489-1.743-7.394-5.229-8.715c-1.901-0.739-5.467-1.11-10.696-1.11H69.813v34.609c1.862,0.06,3.726,0.101,5.59,0.123
					C80.966,64.359,86.532,64.246,92.038,63.944z M81.618,37.416c1.263,0,2.168,0.107,2.717,0.32
					c0.988,0.426,1.482,1.305,1.482,2.637v13.42c0,1.385-0.522,2.29-1.565,2.716c-0.384,0.161-1.263,0.24-2.634,0.24V37.416z"/>
				<path style="fill:#FFF8E3;" d="M69.813,71.864v13.169h11.805V71.261c-2.021,0.148-4.045,0.276-6.071,0.379
					C73.636,71.735,71.724,71.809,69.813,71.864z"/>
				<path style="fill:#FFF8E3;" d="M99.84,85.033h23.848v-7.052h-11.726V67.06c-3.967,0.845-8.014,1.579-12.122,2.196V85.033z"/>
				<path style="fill:#FFF8E3;" d="M111.963,58.412h10.458v-6.814h-10.458V36.623h11.568v-7.052H99.84v33.79
					c4.104-0.376,8.152-0.871,12.122-1.486V58.412z"/>
				<path style="fill:#FFF8E3;" d="M152.652,49.377c0.4-0.207,0.678-0.583,0.768-1.024c0.141-0.693,0.217-1.483,0.217-2.382v-6.623
					c0-2.942-1.123-5.307-3.368-7.095c-2.246-1.787-5.375-2.682-9.388-2.682h-15.054v29.577c4.29-1.044,8.438-2.239,12.36-3.606
					C143.413,53.73,148.265,51.646,152.652,49.377z M137.949,36.623c1.211,0,2.162,0.145,2.85,0.433
					c0.688,0.29,1.032,1.117,1.032,2.482v9.064c0,1.367-0.468,2.259-1.404,2.679c-0.387,0.159-1.212,0.236-2.479,0.236V36.623z"/>
				<path style="fill:#FFF8E3;" d="M125.827,85.033h12.122V59.313c-3.853,1.556-7.908,2.975-12.122,4.241V85.033z"/>
				<path style="fill:#FFF8E3;" d="M140.799,58.768c0.688,0.291,1.032,1.123,1.032,2.496v13.627c0,2.852,0.131,5.058,0.396,6.616
					c0.264,1.559,0.739,2.733,1.426,3.526h12.122c-0.846-0.634-1.453-2.512-1.822-5.633c-0.107-1.005-0.212-2.486-0.317-4.444
					v-11.98c0-1.957-0.368-3.491-1.102-4.602c-0.987-1.447-2.69-2.563-5.098-3.353c-2.403,1.218-4.919,2.385-7.537,3.489
					C140.233,58.577,140.541,58.659,140.799,58.768z"/>
			</g>
		</g>
		<g>
			<path style="fill:#F16522;" d="M173.496,51.043v16.641c0,2.261-0.248,4.028-0.742,5.3c-0.494,1.272-1.519,1.908-3.073,1.908
				c-1.084,0-1.944-0.424-2.579-1.272c-0.636-0.848-1.096-1.837-1.378-2.967l-9.185,4.098c0.754,3.251,2.355,5.865,4.805,7.843
				c2.448,1.979,5.417,2.968,8.903,2.968c4.992,0,8.656-1.507,10.987-4.522c2.332-3.014,3.498-7.137,3.498-12.365V44.36
				C182.749,48.393,178.852,50.761,173.496,51.043z"/>
			<path style="fill:#F16522;" d="M216.386,57.881c-1.12-1.217-2.355-2.242-3.705-3.078c-1.349-0.836-2.636-1.558-3.857-2.166
				c-2.175-1.114-3.82-2.141-4.931-3.079c-1.113-0.937-1.67-2.242-1.67-3.914c0-1.975,0.543-3.394,1.631-4.256
				c1.088-0.861,2.314-1.292,3.68-1.292c1.315,0,2.58,0.292,3.794,0.872c1.214,0.582,2.276,1.404,3.186,2.466l6.298-8.914
				c-1.569-1.657-3.516-2.964-5.843-3.918c-2.327-0.954-4.957-1.432-7.891-1.432c-1.972,0-3.934,0.33-5.88,0.986
				c-1.948,0.658-3.717,1.669-5.311,3.035c-1.593,1.366-2.883,3.124-3.87,5.273c-0.986,2.151-1.479,4.717-1.479,7.701
				c0,2.226,0.277,4.148,0.834,5.766c0.556,1.62,1.328,3.035,2.314,4.249c0.986,1.214,2.124,2.251,3.414,3.111
				c1.29,0.861,2.667,1.644,4.135,2.352c2.326,1.164,4.097,2.264,5.311,3.301c1.214,1.037,1.821,2.441,1.821,4.211
				c0,1.72-0.506,3.061-1.518,4.021c-1.012,0.961-2.251,1.441-3.718,1.441c-1.568,0-3.11-0.366-4.628-1.1
				c-1.518-0.733-2.858-1.707-4.022-2.921l-6.222,9.105c1.618,1.619,3.756,3.035,6.411,4.249c2.656,1.214,5.602,1.821,8.84,1.821
				c2.174,0,4.278-0.367,6.311-1.101c2.032-0.735,3.825-1.825,5.378-3.269c1.553-1.444,2.787-3.267,3.704-5.471
				c0.917-2.204,1.376-4.75,1.376-7.638c0-2.331-0.37-4.345-1.108-6.042C218.436,60.554,217.506,59.098,216.386,57.881z"/>
		</g>
		<g>
			<g>
				<path style="fill:#FFF8E3;" d="M165.051,31.384c0.405-0.555,1.371-0.404,1.605,0.237c1.161,2.496,3.565,4.36,6.271,4.864
					c0.655,0.072,1.059,0.909,0.665,1.45c-0.888,1.158-1.783,2.314-2.684,3.463c-0.428,0.57-1.45,0.352-1.614-0.339
					c-0.105-0.552-0.149-1.114-0.23-1.671c-1.272,0.594-2.526,1.225-3.801,1.813c-0.609,0.279-1.378-0.313-1.267-0.971
					c0.252-1.385,0.559-2.76,0.807-4.146c-0.557,0.066-1.112,0.161-1.672,0.196c-0.71,0.016-1.168-0.926-0.728-1.48
					C163.277,33.656,164.167,32.522,165.051,31.384z"/>
			</g>
		</g>
	</g>
	<g>
		<path style="fill:#FFF8E3;" d="M192.518,4.762c-2.376-0.274-4.738,0.425-6.982,1.135c-5.138,1.777-9.939,4.911-13.087,9.406
			c-0.148,0.167-0.235,0.484-0.513,0.435c-1.15,0.019-2.3,0.044-3.45,0.088c-2.014,0.113-3.904,1.369-4.792,3.179
			c-1.034,2.153-2.032,4.323-3.052,6.483c-0.483,0.994,0.146,2.298,1.206,2.574c0.697,0.16,1.413-0.018,2.117-0.03
			c1.481-0.057,2.986-0.24,4.449-0.231c0.31,1.927,1.348,3.765,2.987,4.861c1.408,0.972,3.176,1.349,4.866,1.168
			c0.45,2.062,0.838,4.137,1.289,6.198c0.291,1.217,1.946,1.791,2.919,0.994c1.86-1.575,3.691-3.187,5.533-4.784
			c1.43-1.286,2.154-3.301,1.833-5.202c-0.255-1.285-0.576-2.557-0.853-3.837c3.786-4.254,5.75-9.885,6.18-15.508
			C193.291,9.378,193.371,6.953,192.518,4.762z M183.897,21.094c-2.626,0.183-4.903-1.797-5.086-4.423
			c-0.183-2.626,1.797-4.903,4.423-5.086c2.626-0.183,4.903,1.797,5.086,4.423C188.503,18.633,186.523,20.911,183.897,21.094z"/>
	</g>
</g>
</svg>
